<svg xmlns="http://www.w3.org/2000/svg" viewBox="0 0 96 96" fill="none">
  

  
  <path d="M48 16&#xA;           C 47.6 16, 47.4 16.4, 47.5 17&#xA;           L 48 60&#xA;           C 48 62, 47 64, 45 65.5&#xA;           C 43.5 66.6, 41.6 67, 40 67&#xA;           C 38.6 67, 38.2 65.6, 39.4 64.8&#xA;           C 41 63.6, 42 62, 42.2 60&#xA;           L 42.7 19&#xA;           C 42.7 17.5, 44 16.6, 45.5 16.4&#xA;           C 47 16.2, 48 16, 48 16 Z" fill="#155DFF"></path>

  
  <path d="M30 30&#xA;           C 30 29.6, 30.4 29.4, 30.8 29.6&#xA;           C 35 31.6, 38 35, 39.5 40&#xA;           C 40 42, 39.5 44, 38 45&#xA;           C 36.6 46, 35 45, 34.5 43.4&#xA;           C 33.4 39, 31.6 35, 29.5 31.4&#xA;           C 29.2 31, 29.6 30.4, 30 30 Z" fill="#155DFF"></path>

  
  <path d="M40 50&#xA;           C 40.4 50, 40.6 50.4, 40.4 50.8&#xA;           C 36.4 58, 30 64.6, 22 70.6&#xA;           C 21 71.4, 19.6 71, 19 70&#xA;           C 18.4 69, 18.6 67.6, 19.6 66.8&#xA;           C 26 61.6, 32 55, 36 49&#xA;           C 36.6 48.2, 38 48, 39 48.6&#xA;           C 40 49.2, 40 49.8, 40 50 Z" fill="#155DFF"></path>

  
  <path d="M55 50&#xA;           C 55 49.4, 55.6 49, 56.4 49.4&#xA;           C 57.6 50, 58 51, 58.6 52.2&#xA;           C 62 58.4, 67.6 64, 75 69&#xA;           C 76.4 70, 76.6 71.6, 75.6 73&#xA;           C 74.6 74, 73 74, 71.6 73&#xA;           C 64 67.6, 58 60.6, 54.6 53.4&#xA;           C 54.2 52.4, 54.6 51, 55 50 Z" fill="#155DFF"></path>

  
  <circle cx="29.6" cy="30.6" r="1.4" fill="#155DFF" opacity="0.55"></circle>
  <circle cx="19.4" cy="70.6" r="1.6" fill="#155DFF" opacity="0.5"></circle>
  <circle cx="75.6" cy="72.6" r="1.6" fill="#155DFF" opacity="0.5"></circle>
  <circle cx="40" cy="66.6" r="1.2" fill="#155DFF" opacity="0.55"></circle>
</svg>